<svg width="29" height="22" viewBox="0 0 29 22" fill="none" xmlns="http://www.w3.org/2000/svg">
<path fill-rule="evenodd" clip-rule="evenodd" d="M23.466 3.15291C23.6445 3.30222 23.7307 3.5349 23.6924 3.76448L21.0662 19.5214C21.0296 19.7411 20.8841 19.9273 20.6796 20.0159C20.4752 20.1045 20.2398 20.0833 20.0545 19.9597L12.176 14.7074C12.0229 14.6054 11.9197 14.4437 11.8914 14.2619C11.8632 14.08 11.9126 13.8947 12.0275 13.751L14.6381 10.4877L10.2782 13.3944C10.0822 13.525 9.83115 13.5407 9.62042 13.4353L4.36812 10.8092C4.13288 10.6915 3.99054 10.4449 4.00639 10.1824C4.02224 9.91983 4.19323 9.6921 4.44091 9.60364L22.824 3.03826C23.0432 2.95998 23.2874 3.00359 23.466 3.15291ZM6.33145 10.3228L9.86687 12.0905L17.4283 7.0495C17.6976 6.86994 18.0577 6.91349 18.2764 7.1521C18.4952 7.3907 18.5074 7.75314 18.3052 8.00591L13.5002 14.0121L19.938 18.3039L22.2135 4.65058L6.33145 10.3228Z" fill="#231F20"/>
</svg>
